mtllib materials.mtl
v -0.06105483 -0.1177846 0.04274995
v 0.006243587 -0.1269816 0.1052653
v 0.1021106 -0.1293964 0.007100502
v 0.03654242 -0.119918 -0.05718646
v -0.04389578 0.06326735 0.05521917
v 0.04859936 0.06010044 -0.04759254
v 0.1153905 0.05281949 0.01571443
v 0.02440345 0.05334795 0.116527
v -0.06802458 -0.1084771 0.05059823
v -0.002575696 -0.1176203 0.1148852
v 0.1121565 -0.1217545 -0.006140044
v 0.04581472 -0.1111822 -0.06939847
v 0.05173415 -0.09603441 -0.07395215
v 0.06198573 0.0353905 -0.06521236
v 0.05810478 0.0515306 -0.06115169
v -0.0537129 0.05335724 0.06299504
v -0.06237316 0.03479779 0.06493053
v -0.07240707 -0.09383738 0.05637629
v -0.006304383 -0.1072587 0.1195308
v 0.004604876 0.03259706 0.1288312
v 0.01197994 0.04370546 0.1267646
v 0.1230541 0.04516697 0.004135157
v 0.1287588 0.03056276 -0.001486409
v 0.1177915 -0.110038 -0.01083637
v -0.04866982 0.02207172 0.04225378
v -0.03341085 0.01847553 0.0561786
v 0.01029289 -0.005174041 0.008007625
v -0.00496608 -0.001577854 -0.005917176
v -0.04705495 0.03440273 0.04366879
v 0.03955668 0.03396463 -0.05135439
v 0.05481565 0.03036845 -0.03742959
v -0.03179598 0.03080654 0.05759361
v 0.03794184 0.02163363 -0.05276943
v 0.05320081 0.01803744 -0.03884462
vn -0.08365183 -0.9947555 -0.05885492
vn 0.07832167 0.9955444 0.05250766
vn -0.4851882 -0.7800506 0.3951121
vn 0.2410882 -0.8890852 -0.3891066
vn -0.7212338 0.1002812 -0.6853943
vn 0.7209996 -0.1003423 0.6856319
vn 0.69018 -0.005715813 -0.7236152
vn 0.6570759 0.40508 -0.6357369
vn -0.6094719 0.4201133 0.6723458
vn -0.6901804 0.005716112 0.7236148
vn -0.3280487 0.814304 0.4788456
vn -0.6567908 -0.4616648 0.5962312
vn 0.3841364 0.8728611 -0.3009197
vn 0.5600144 -0.4746709 -0.6790225
vn -0.3468466 -0.927325 0.1405912
vn 0.1290155 0.9851772 0.1130525
vn -0.6736338 0.00341027 0.7390574
vn 0.6736343 -0.003408262 -0.7390571
vn -0.735715 0.09200648 -0.6710128
vn 0.7357151 -0.09200704 0.6710127
vn 0.109275 -0.9268737 -0.3591159
vt -0.03312269 -0.06343728
vt -0.02475813 -0.05953188
vt -0.03023089 -0.04694716
vt -0.03869701 -0.05062724
vt 0.03113751 -0.0629786
vt 0.03721324 -0.05055183
vt 0.02882605 -0.04669744
vt 0.02285912 -0.05889579
vt 0.06095768 -0.1356666
vt 0.0619317 -0.1366732
vt 0.06837516 -0.1300796
vt 0.06726246 -0.128924
vt -0.07129069 0.02702215
vt -0.0626421 0.03024925
vt -0.06354141 0.03184031
vt -0.07216348 0.02855394
vt -0.1674572 0.04840959
vt -0.1603223 0.06041868
vt -0.1603006 0.06216462
vt -0.1612488 0.06356172
vt -0.1726626 0.07021498
vt -0.1743344 0.07052916
vt -0.1759117 0.06954739
vt -0.1831138 0.05774198
vt -0.1828624 0.05616667
vt -0.1815866 0.05458213
vt -0.1704151 0.0480701
vt -0.1687862 0.04796413
vt 0.1674179 0.04848059
vt 0.168878 0.04781538
vt 0.170072 0.0478176
vt 0.1822182 0.05489714
vt 0.1828821 0.05603831
vt 0.1829335 0.0579116
vt 0.1760861 0.06963396
vt 0.1747231 0.07042705
vt 0.1730667 0.07039742
vt 0.1608558 0.06328017
vt 0.1602015 0.06206296
vt 0.1603823 0.06026132
vt -0.1414608 0.1066938
vt -0.1500664 0.1179057
vt -0.1571096 0.1119206
vt -0.1490656 0.1014404
vt -0.1854231 0.0002093906
vt -0.1870635 0.0004614543
vt -0.1890486 -0.00855257
vt -0.1873674 -0.008825508
vt 0.1115556 0.1129384
vt 0.1121277 0.1149107
vt 0.1037395 0.1187022
vt 0.1034384 0.1173925
vt 0.149137 0.1015337
vt 0.1570103 0.1117914
vt 0.1501278 0.117986
vt 0.1415678 0.1068335
vt 0.08007141 0.04596485
vt 0.08058302 0.04747352
vt 0.07205525 0.05100663
vt 0.07146421 0.04922919
vt 0.1753394 -0.03959104
vt 0.1769697 -0.03949422
vt 0.1756836 -0.03034402
vt 0.1744911 -0.03041072
vt -0.03422481 -0.1165251
vt -0.03532428 -0.1176672
vt -0.0279929 -0.1232769
vt -0.02672628 -0.1219088
vt -0.1016007 0.1033899
vt -0.102212 0.1046273
vt -0.1107635 0.1011206
vt -0.110017 0.09960769
vt -0.01116556 -0.1201409
vt -0.009358568 -0.1190772
vt -0.01253043 -0.112926
vt -0.01433742 -0.1139897
vt 0.04868065 -0.06521322
vt 0.05378478 -0.05341239
vt 0.05186025 -0.05257998
vt 0.04675612 -0.06438081
vt 0.1598956 0.1061109
vt 0.1606109 0.1071381
vt 0.1588902 0.1083364
vt 0.1581749 0.1073093
vt -0.1598958 0.1061108
vt -0.1581751 0.1073091
vt -0.1588904 0.1083363
vt -0.1606111 0.1071379
vt -0.1789107 0.05761168
vt -0.1736097 0.06205645
vt -0.1724235 0.06871249
vt -0.1735007 0.06934198
vt -0.1799879 0.05824118
vt 0.1787656 0.05752693
vt 0.1798428 0.05815643
vt 0.1733556 0.06925722
vt 0.1722784 0.06862773
vt 0.1734646 0.0619717
vt -0.07369073 0.002574073
vt -0.07642636 0.008760042
vt -0.07838942 0.008023097
vt -0.07565378 0.001837127
o group275115095
g mesh275115095
usemtl mat5
f 4/4/1 3/3/1 2/2/1 1/1/1
f 8/8/2 7/7/2 6/6/2 5/5/2
f 2/12/3 10/11/3 9/10/3 1/9/3
f 12/16/4 11/15/4 3/14/4 4/13/4
f 9/28/5 18/27/5 17/26/5 16/25/5 5/24/5 6/23/5 15/22/5 14/21/5 13/20/5 12/19/5 4/18/5 1/17/5
f 3/40/6 11/39/6 24/38/6 23/37/6 22/36/6 7/35/6 8/34/6 21/33/6 20/32/6 19/31/6 10/30/6 2/29/6
f 13/44/7 14/43/7 23/42/7 24/41/7
f 14/48/8 15/47/8 22/46/8 23/45/8
f 20/52/9 21/51/9 16/50/9 17/49/9
f 19/56/10 20/55/10 17/54/10 18/53/10
f 21/60/11 8/59/11 5/58/11 16/57/11
f 10/64/12 19/63/12 18/62/12 9/61/12
f 15/68/13 6/67/13 7/66/13 22/65/13
f 12/72/14 13/71/14 24/70/14 11/69/14
f 28/76/15 27/75/15 26/74/15 25/73/15
f 32/80/16 31/79/16 30/78/16 29/77/16
f 26/84/17 32/83/17 29/82/17 25/81/17
f 30/88/18 31/87/18 34/86/18 33/85/18
f 27/98/20 34/97/20 31/96/20 32/95/20 26/94/20
f 28/102/21 33/101/21 34/100/21 27/99/21
usemtl mat21
f 29/93/19 30/92/19 33/91/19 28/90/19 25/89/19
